<svg width="1366" height="768" viewBox="0 0 1366 768" fill="none" xmlns="http://www.w3.org/2000/svg">
    <g clip-path="url(#clip0_28_305)">
        <path d="M1483 0H-117V768H1483V0Z" fill="#FCFCFC" />
        <path
            d="M-117 1728C877.113 1728 1683 954.348 1683 0C1683 -954.348 877.113 -1728 -117 -1728C-1111.11 -1728 -1917 -954.348 -1917 0C-1917 954.348 -1111.11 1728 -117 1728Z"
            fill="#FCFCFC" stroke="#B3C6FF" stroke-opacity="0.05" stroke-width="66.7" />
        <path
            d="M-117 1632C821.884 1632 1583 901.329 1583 0C1583 -901.329 821.884 -1632 -117 -1632C-1055.88 -1632 -1817 -901.329 -1817 0C-1817 901.329 -1055.88 1632 -117 1632Z"
            fill="#F8F8F8" stroke="#B3C6FF" stroke-opacity="0.05" stroke-width="66.7" />
        <path
            d="M-117 1536C766.656 1536 1483 848.309 1483 0C1483 -848.309 766.656 -1536 -117 -1536C-1000.66 -1536 -1717 -848.309 -1717 0C-1717 848.309 -1000.66 1536 -117 1536Z"
            fill="#F7F7F7" stroke="#B3C6FF" stroke-opacity="0.05" stroke-width="66.7" />
        <path
            d="M-117 1440C711.427 1440 1383 795.29 1383 0C1383 -795.29 711.427 -1440 -117 -1440C-945.427 -1440 -1617 -795.29 -1617 0C-1617 795.29 -945.427 1440 -117 1440Z"
            fill="#F5F5F5" stroke="#B3C6FF" stroke-opacity="0.05" stroke-width="66.7" />
        <path
            d="M-117 1344C656.199 1344 1283 742.271 1283 0C1283 -742.271 656.199 -1344 -117 -1344C-890.199 -1344 -1517 -742.271 -1517 0C-1517 742.271 -890.199 1344 -117 1344Z"
            fill="#F3F3F3" stroke="#B3C6FF" stroke-opacity="0.05" stroke-width="66.7" />
        <path
            d="M-117 1248C600.97 1248 1183 689.251 1183 0C1183 -689.251 600.97 -1248 -117 -1248C-834.97 -1248 -1417 -689.251 -1417 0C-1417 689.251 -834.97 1248 -117 1248Z"
            fill="#F1F1F1" stroke="#B3C6FF" stroke-opacity="0.05" stroke-width="66.7" />
        <path
            d="M-117 1152C545.742 1152 1083 636.232 1083 0C1083 -636.232 545.742 -1152 -117 -1152C-779.742 -1152 -1317 -636.232 -1317 0C-1317 636.232 -779.742 1152 -117 1152Z"
            fill="#F0F0F0" stroke="#B3C6FF" stroke-opacity="0.05" stroke-width="66.7" />
        <path
            d="M-117 1056C490.513 1056 983 583.213 983 0C983 -583.213 490.513 -1056 -117 -1056C-724.513 -1056 -1217 -583.213 -1217 0C-1217 583.213 -724.513 1056 -117 1056Z"
            fill="#EEEEEE" stroke="#B3C6FF" stroke-opacity="0.05" stroke-width="66.7" />
        <path
            d="M-117 960C435.285 960 883 530.193 883 0C883 -530.193 435.285 -960 -117 -960C-669.285 -960 -1117 -530.193 -1117 0C-1117 530.193 -669.285 960 -117 960Z"
            fill="#ECECEC" stroke="#B3C6FF" stroke-opacity="0.05" stroke-width="66.7" />
        <path
            d="M-117 864C380.056 864 783 477.174 783 0C783 -477.174 380.056 -864 -117 -864C-614.056 -864 -1017 -477.174 -1017 0C-1017 477.174 -614.056 864 -117 864Z"
            fill="#EBEBEB" stroke="#B3C6FF" stroke-opacity="0.05" stroke-width="66.7" />
        <path
            d="M-117 768C324.828 768 683 424.155 683 0C683 -424.155 324.828 -768 -117 -768C-558.828 -768 -917 -424.155 -917 0C-917 424.155 -558.828 768 -117 768Z"
            fill="#E9E9E9" stroke="#B3C6FF" stroke-opacity="0.05" stroke-width="66.7" />
        <path
            d="M-117 672C269.599 672 583 371.135 583 0C583 -371.135 269.599 -672 -117 -672C-503.599 -672 -817 -371.135 -817 0C-817 371.135 -503.599 672 -117 672Z"
            fill="#E7E7E7" stroke="#B3C6FF" stroke-opacity="0.05" stroke-width="66.7" />
        <path
            d="M-117 576C214.371 576 483 318.116 483 0C483 -318.116 214.371 -576 -117 -576C-448.371 -576 -717 -318.116 -717 0C-717 318.116 -448.371 576 -117 576Z"
            fill="#E5E5E5" stroke="#B3C6FF" stroke-opacity="0.05" stroke-width="66.7" />
        <path
            d="M-117 480C159.142 480 383 265.097 383 0C383 -265.097 159.142 -480 -117 -480C-393.142 -480 -617 -265.097 -617 0C-617 265.097 -393.142 480 -117 480Z"
            fill="#E4E4E4" stroke="#B3C6FF" stroke-opacity="0.05" stroke-width="66.7" />
        <path
            d="M-117 384C103.914 384 283 212.077 283 0C283 -212.077 103.914 -384 -117 -384C-337.914 -384 -517 -212.077 -517 0C-517 212.077 -337.914 384 -117 384Z"
            fill="#E2E2E2" stroke="#B3C6FF" stroke-opacity="0.05" stroke-width="66.7" />
        <path
            d="M-117 288C48.6854 288 183 159.058 183 0C183 -159.058 48.6854 -288 -117 -288C-282.685 -288 -417 -159.058 -417 0C-417 159.058 -282.685 288 -117 288Z"
            fill="#E0E0E0" stroke="#B3C6FF" stroke-opacity="0.05" stroke-width="66.7" />
        <path
            d="M-117 192C-6.54306 192 83 106.039 83 0C83 -106.039 -6.54306 -192 -117 -192C-227.457 -192 -317 -106.039 -317 0C-317 106.039 -227.457 192 -117 192Z"
            fill="#DFDFDF" stroke="#B3C6FF" stroke-opacity="0.05" stroke-width="66.7" />
        <path
            d="M-117 96C-61.7715 96 -17 53.0193 -17 0C-17 -53.0193 -61.7715 -96 -117 -96C-172.228 -96 -217 -53.0193 -217 0C-217 53.0193 -172.228 96 -117 96Z"
            fill="#DDDDDD" stroke="#B3C6FF" stroke-opacity="0.05" stroke-width="66.7" />
    </g>
    <defs>
        <clipPath id="clip0_28_305">
            <rect width="1600" height="768" fill="white" transform="translate(-117)" />
        </clipPath>
    </defs>
</svg>