<svg viewBox="0 0 14 13" fill="none" xmlns="http://www.w3.org/2000/svg">
    <path
        d="M3.5 2.5V0.5C3.5 0.367392 3.55268 0.240215 3.64645 0.146447C3.74021 0.0526784 3.86739 0 4 0C4.13261 0 4.25979 0.0526784 4.35355 0.146447C4.44732 0.240215 4.5 0.367392 4.5 0.5V2.5C4.5 2.63261 4.44732 2.75979 4.35355 2.85355C4.25979 2.94732 4.13261 3 4 3C3.86739 3 3.74021 2.94732 3.64645 2.85355C3.55268 2.75979 3.5 2.63261 3.5 2.5ZM6 3C6.13261 3 6.25979 2.94732 6.35355 2.85355C6.44732 2.75979 6.5 2.63261 6.5 2.5V0.5C6.5 0.367392 6.44732 0.240215 6.35355 0.146447C6.25979 0.0526784 6.13261 0 6 0C5.86739 0 5.74021 0.0526784 5.64645 0.146447C5.55268 0.240215 5.5 0.367392 5.5 0.5V2.5C5.5 2.63261 5.55268 2.75979 5.64645 2.85355C5.74021 2.94732 5.86739 3 6 3ZM8 3C8.13261 3 8.25979 2.94732 8.35355 2.85355C8.44732 2.75979 8.5 2.63261 8.5 2.5V0.5C8.5 0.367392 8.44732 0.240215 8.35355 0.146447C8.25979 0.0526784 8.13261 0 8 0C7.86739 0 7.74021 0.0526784 7.64645 0.146447C7.55268 0.240215 7.5 0.367392 7.5 0.5V2.5C7.5 2.63261 7.55268 2.75979 7.64645 2.85355C7.74021 2.94732 7.86739 3 8 3ZM14 6.5V7C13.9998 7.63597 13.7572 8.24795 13.3217 8.71137C12.8861 9.17478 12.2904 9.45479 11.6556 9.49438C11.3146 10.4591 10.7339 11.3213 9.96813 12H11.5C11.6326 12 11.7598 12.0527 11.8536 12.1464C11.9473 12.2402 12 12.3674 12 12.5C12 12.6326 11.9473 12.7598 11.8536 12.8536C11.7598 12.9473 11.6326 13 11.5 13H0.5C0.367392 13 0.240215 12.9473 0.146447 12.8536C0.0526784 12.7598 0 12.6326 0 12.5C0 12.3674 0.0526784 12.2402 0.146447 12.1464C0.240215 12.0527 0.367392 12 0.5 12H2.03375C1.39581 11.4364 0.884685 10.7439 0.534111 9.96818C0.183538 9.19248 0.00149429 8.35124 0 7.5V4.5C0 4.36739 0.0526784 4.24021 0.146447 4.14645C0.240215 4.05268 0.367392 4 0.5 4H11.5C12.163 4 12.7989 4.26339 13.2678 4.73223C13.7366 5.20107 14 5.83696 14 6.5ZM11 5H1V7.5C1.00193 8.4388 1.26723 9.35822 1.76575 10.1537C2.26427 10.9492 2.97599 11.5889 3.82 12H8.18C9.02401 11.5889 9.73573 10.9492 10.2343 10.1537C10.7328 9.35822 10.9981 8.4388 11 7.5V5ZM13 6.5C12.9999 6.18989 12.9037 5.88743 12.7246 5.63425C12.5455 5.38107 12.2924 5.18962 12 5.08625V7.5C11.9996 7.81398 11.9745 8.12745 11.925 8.4375C12.2352 8.34585 12.5075 8.15636 12.7013 7.8973C12.895 7.63824 12.9998 7.32349 13 7V6.5Z"
        fill="#808080" />
</svg>