<svg fill="none" xmlns="http://www.w3.org/2000/svg">
    <path
        d="M11.9655 3.838C11.948 3.7985 11.5245 2.859 10.583 1.9175C9.3285 0.663 7.744 0 6 0C4.256 0 2.6715 0.663 1.417 1.9175C0.475496 2.859 0.0499952 3.8 0.0344952 3.838C0.0117518 3.88916 0 3.94452 0 4.0005C0 4.05649 0.0117518 4.11185 0.0344952 4.163C0.0519953 4.2025 0.475496 5.1415 1.417 6.083C2.6715 7.33701 4.256 8.00001 6 8.00001C7.744 8.00001 9.3285 7.33701 10.583 6.083C11.5245 5.1415 11.948 4.2025 11.9655 4.163C11.9882 4.11185 12 4.05649 12 4.0005C12 3.94452 11.9882 3.88916 11.9655 3.838ZM6 7.20001C4.461 7.20001 3.1165 6.6405 2.0035 5.5375C1.54682 5.08335 1.15829 4.56548 0.849996 4C1.15821 3.43447 1.54674 2.91659 2.0035 2.4625C3.1165 1.3595 4.461 0.800001 6 0.800001C7.539 0.800001 8.8835 1.3595 9.9965 2.4625C10.4541 2.91648 10.8434 3.43436 11.1525 4C10.792 4.673 9.2215 7.20001 6 7.20001ZM6 1.6C5.52532 1.6 5.06131 1.74076 4.66663 2.00447C4.27195 2.26819 3.96434 2.64302 3.78269 3.08156C3.60104 3.5201 3.55351 4.00267 3.64611 4.46822C3.73872 4.93377 3.9673 5.36141 4.30294 5.69706C4.63859 6.03271 5.06623 6.26128 5.53178 6.35389C5.99734 6.44649 6.4799 6.39897 6.91844 6.21732C7.35698 6.03567 7.73181 5.72805 7.99553 5.33337C8.25924 4.93869 8.4 4.47468 8.4 4C8.39934 3.36369 8.14627 2.75362 7.69633 2.30368C7.24638 1.85373 6.63632 1.60066 6 1.6ZM6 5.6C5.68355 5.6 5.37421 5.50617 5.11109 5.33035C4.84797 5.15454 4.64289 4.90466 4.52179 4.6123C4.40069 4.31993 4.36901 3.99823 4.43074 3.68786C4.49248 3.37749 4.64486 3.0924 4.86863 2.86863C5.09239 2.64487 5.37749 2.49248 5.68786 2.43075C5.99823 2.36901 6.31993 2.40069 6.61229 2.52179C6.90466 2.64289 7.15454 2.84797 7.33035 3.11109C7.50616 3.37421 7.6 3.68355 7.6 4C7.6 4.42435 7.43143 4.83132 7.13137 5.13137C6.83131 5.43143 6.42435 5.6 6 5.6Z"
        fill="#AAAAAA" />
</svg>