<svg viewBox="0 0 12 10" fill="none" xmlns="http://www.w3.org/2000/svg">
    <path
        d="M1.69588 7.325L2.26789 6.81786C1.64156 6.31576 1.14945 5.69453 0.827853 5C1.63988 3.18929 3.87994 1.78571 6 1.78571C6.54557 1.79214 7.0862 1.87903 7.60005 2.04286L8.22006 1.48571C7.5171 1.22047 6.7631 1.07977 6 1.07143C4.69617 1.1152 3.43528 1.49913 2.37318 2.17574C1.31107 2.85236 0.494308 3.79202 0.0238305 4.87857C-0.0079435 4.95704 -0.0079435 5.04296 0.0238305 5.12143C0.379139 5.96322 0.952028 6.71822 1.69588 7.325Z"
        fill="#AAAAAA" />
    <path
        d="M4.39995 4.90357C4.42777 4.56133 4.59264 4.23946 4.8644 3.99682C5.13617 3.75417 5.49667 3.60698 5.88 3.58214L6.60402 2.93214C6.19831 2.83677 5.77169 2.838 5.36668 2.93574C4.96168 3.03347 4.59245 3.22428 4.29579 3.48914C3.99913 3.75401 3.78542 4.08367 3.67596 4.44527C3.5665 4.80687 3.56511 5.18777 3.67193 5.55L4.39995 4.90357ZM11.9762 4.87857C11.5175 3.81186 10.7194 2.88822 9.6801 2.22143L11.6002 0.503571L11.0361 0L0.399841 9.49643L0.963857 10L3.00392 8.17857C3.91349 8.655 4.94559 8.91336 6 8.92857C7.30383 8.8848 8.56472 8.50087 9.62682 7.82425C10.6889 7.14764 11.5057 6.20798 11.9762 5.12143C12.0079 5.04296 12.0079 4.95704 11.9762 4.87857ZM7.60005 5C7.59836 5.25004 7.5232 5.4953 7.38208 5.71127C7.24096 5.92725 7.03882 6.10637 6.79587 6.23074C6.55291 6.3551 6.27765 6.42036 5.9976 6.41998C5.71754 6.4196 5.44251 6.3536 5.19998 6.22857L7.37604 4.28571C7.51985 4.50205 7.59712 4.74845 7.60005 5ZM6 8.21429C5.1608 8.2012 4.33751 8.00763 3.59993 7.65L4.61596 6.74286C5.07811 7.02916 5.6382 7.16144 6.19846 7.1166C6.75871 7.07176 7.28353 6.85265 7.68128 6.49753C8.07902 6.1424 8.32443 5.67383 8.37465 5.17362C8.42488 4.67341 8.27672 4.17333 7.95605 3.76071L9.10409 2.73571C10.0219 3.29821 10.7397 4.08408 11.1721 5C10.3601 6.81071 8.12006 8.21429 6 8.21429Z"
        fill="#AAAAAA" />
</svg>