<svg viewBox="0 0 12 12" fill="none" xmlns="http://www.w3.org/2000/svg">
    <path
        d="M8.14286 -3.04138e-05C7.54054 -0.000168541 6.94657 0.140783 6.40853 0.41153C5.8705 0.682278 5.40337 1.07529 5.04457 1.55908C4.68577 2.04286 4.44529 2.60397 4.34238 3.19743C4.23948 3.79089 4.27702 4.4002 4.452 4.97654L0 9.42854V12H2.57143L7.02343 7.54797C7.55396 7.70901 8.11297 7.75378 8.66237 7.67923C9.21177 7.60468 9.73863 7.41257 10.2071 7.11599C10.6755 6.8194 11.0745 6.42532 11.3769 5.96059C11.6792 5.49585 11.8778 4.9714 11.9592 4.42297C12.0405 3.87453 12.0026 3.31501 11.8482 2.78253C11.6937 2.25005 11.4263 1.75713 11.0641 1.33735C10.7019 0.917579 10.2535 0.580822 9.74935 0.350031C9.24523 0.119241 8.69729 -0.000158992 8.14286 -3.04138e-05ZM8.14286 6.85711C7.84779 6.85695 7.55436 6.81334 7.272 6.72768L6.78043 6.57854L5.05414 8.30483L4.46314 7.71426L3.85714 8.32026L4.44814 8.91125L3.76843 9.59097L3.17743 8.99997L2.57143 9.60597L3.16243 10.197L2.21657 11.1428H0.857143V9.7834L5.42143 5.21954L5.27229 4.72797C5.08911 4.12411 5.10101 3.47786 5.30629 2.88116C5.51158 2.28445 5.8998 1.76767 6.41573 1.40432C6.93166 1.04098 7.54903 0.849577 8.18001 0.85734C8.811 0.865102 9.42347 1.07164 9.9303 1.44756C10.4371 1.82349 10.8125 2.34966 11.0031 2.95124C11.1936 3.55282 11.1896 4.19916 10.9916 4.79833C10.7937 5.3975 10.4118 5.91899 9.90032 6.28861C9.38887 6.65823 8.77389 6.85716 8.14286 6.85711Z"
        fill="#AAAAAA" />
    <path
        d="M8.57143 4.28568C9.04482 4.28568 9.42857 3.90193 9.42857 3.42854C9.42857 2.95515 9.04482 2.5714 8.57143 2.5714C8.09804 2.5714 7.71429 2.95515 7.71429 3.42854C7.71429 3.90193 8.09804 4.28568 8.57143 4.28568Z"
        fill="#AAAAAA" />
</svg>