<svg viewBox="0 0 12 12" fill="none" xmlns="http://www.w3.org/2000/svg">
    <path
        d="M1.2 11.4C0.870001 11.4 0.587401 11.2824 0.352201 11.0472C0.117001 10.812 -0.000398981 10.5296 1.01868e-06 10.2V3.6C1.01868e-06 3.27 0.117601 2.9874 0.352801 2.7522C0.588001 2.517 0.870401 2.3996 1.2 2.4H3.6V1.2C3.6 0.870001 3.7176 0.587401 3.9528 0.352201C4.188 0.117001 4.4704 -0.000398981 4.8 1.01868e-06H7.2C7.53 1.01868e-06 7.8126 0.117601 8.0478 0.352801C8.283 0.588001 8.4004 0.870401 8.4 1.2V2.4H10.8C11.13 2.4 11.4126 2.5176 11.6478 2.7528C11.883 2.988 12.0004 3.2704 12 3.6V10.2C12 10.53 11.8824 10.8126 11.6472 11.0478C11.412 11.283 11.1296 11.4004 10.8 11.4H1.2ZM1.2 10.2H10.8V3.6H1.2V10.2ZM4.8 2.4H7.2V1.2H4.8V2.4Z"
        fill="#AAAAAA" />
</svg>