<svg viewBox="0 0 11 12" fill="none" xmlns="http://www.w3.org/2000/svg">
    <path
        d="M5.2 5.6C5.75379 5.6 6.29514 5.43578 6.7556 5.12812C7.21605 4.82045 7.57494 4.38315 7.78686 3.87151C7.99879 3.35988 8.05424 2.79689 7.9462 2.25375C7.83816 1.7106 7.57149 1.21169 7.1799 0.820102C6.78831 0.428515 6.2894 0.161841 5.74625 0.0538025C5.20311 -0.0542361 4.64012 0.00121319 4.12849 0.213139C3.61685 0.425064 3.17955 0.783947 2.87189 1.2444C2.56422 1.70486 2.4 2.24621 2.4 2.8C2.4 3.54261 2.695 4.2548 3.2201 4.7799C3.7452 5.305 4.45739 5.6 5.2 5.6ZM5.2 0.800001C5.59556 0.800001 5.98224 0.917299 6.31114 1.13706C6.64004 1.35682 6.89638 1.66918 7.04776 2.03463C7.19913 2.40009 7.23874 2.80222 7.16157 3.19018C7.0844 3.57814 6.89392 3.93451 6.61421 4.21421C6.33451 4.49392 5.97814 4.6844 5.59018 4.76157C5.20222 4.83874 4.80009 4.79914 4.43463 4.64776C4.06918 4.49638 3.75682 4.24004 3.53706 3.91114C3.3173 3.58224 3.2 3.19556 3.2 2.8C3.2 2.26957 3.41071 1.76086 3.78579 1.38579C4.16086 1.01071 4.66957 0.800001 5.2 0.800001Z"
        fill="#AAAAAA" />
    <path
        d="M10.188 8.548C9.54652 7.87001 8.77351 7.32996 7.91622 6.96088C7.05892 6.5918 6.13536 6.40145 5.202 6.40145C4.26864 6.40145 3.34508 6.5918 2.48778 6.96088C1.63049 7.32996 0.857478 7.87001 0.216001 8.548C0.0769259 8.69655 -0.000314765 8.89251 9.64122e-07 9.096V11.2C9.64122e-07 11.4122 0.0842864 11.6157 0.234315 11.7657C0.384345 11.9157 0.587828 12 0.800001 12H9.6C9.81217 12 10.0157 11.9157 10.1657 11.7657C10.3157 11.6157 10.4 11.4122 10.4 11.2V9.096C10.4014 8.89305 10.3256 8.69716 10.188 8.548ZM9.6 11.2H0.800001V9.092C1.36689 8.49507 2.04932 8.01973 2.80574 7.69492C3.56217 7.3701 4.37678 7.20259 5.2 7.20259C6.02322 7.20259 6.83783 7.3701 7.59426 7.69492C8.35068 8.01973 9.03311 8.49507 9.6 9.092V11.2Z"
        fill="#AAAAAA" />
</svg>